HIERARCHY
ROOT hip
{
  OFFSET 0 0 0
  CHANNELS 6 Xposition Yposition Zposition Zrotation Yrotation Xrotation
  JOINT abdomen
  {
    OFFSET 0 20.6881 -0.73152
    CHANNELS 3 Zrotation Xrotation Yrotation
    JOINT chest
    {
      OFFSET 0 11.7043 -0.48768
      CHANNELS 3 Zrotation Xrotation Yrotation
      JOINT neck
      {
        OFFSET 0 22.1894 -2.19456
        CHANNELS 3 Zrotation Xrotation Yrotation
        JOINT head
        {
          OFFSET -0.24384 7.07133 1.2192
          CHANNELS 3 Zrotation Xrotation Yrotation
          JOINT leftEye
          {
            OFFSET 4.14528 8.04674 8.04672
            CHANNELS 3 Zrotation Xrotation Yrotation
            End Site
            {
              OFFSET 1 0 0
            }
          }
          JOINT rightEye
          {
            OFFSET -3.6576 8.04674 8.04672
            CHANNELS 3 Zrotation Xrotation Yrotation
            End Site
            {
              OFFSET 1 0 0
            }
          }
        }
      }
      JOINT rCollar
      {
        OFFSET -2.68224 19.2634 -4.8768
        CHANNELS 3 Zrotation Xrotation Yrotation
        JOINT rShldr
        {
          OFFSET -8.77824 -1.95073 1.46304
          CHANNELS 3 Zrotation Xrotation Yrotation
          JOINT rForeArm
          {
            OFFSET -28.1742 -1.7115 0.48768
            CHANNELS 3 Zrotation Xrotation Yrotation
            JOINT rHand
            {
              OFFSET -22.5879 0.773209 7.07136
              CHANNELS 3 Zrotation Xrotation Yrotation
              JOINT rThumb1
              {
                OFFSET -1.2192 -0.487915 3.41376
                CHANNELS 3 Zrotation Xrotation Yrotation
                JOINT rThumb2
                {
                  OFFSET -3.37035 -0.52449 3.41376
                  CHANNELS 3 Zrotation Xrotation Yrotation
                  End Site
                  {
                    OFFSET -1.78271 -1.18214 1.43049
                  }
                }
              }
              JOINT rIndex1
              {
                OFFSET -7.75947 0.938293 5.60832
                CHANNELS 3 Zrotation Xrotation Yrotation
                JOINT rIndex2
                {
                  OFFSET -2.54057 -0.884171 1.56538
                  CHANNELS 3 Zrotation Xrotation Yrotation
                  End Site
                  {
                    OFFSET -1.62519 -0.234802 1.16502
                  }
                }
              }
              JOINT rMid1
              {
                OFFSET -8.24714 1.18213 3.41376
                CHANNELS 3 Zrotation Xrotation Yrotation
                JOINT rMid2
                {
                  OFFSET -3.10165 -0.590103 1.0647
                  CHANNELS 3 Zrotation Xrotation Yrotation
                  End Site
                  {
                    OFFSET -2.48547 -0.328903 0.83742
                  }
                }
              }
              JOINT rRing1
              {
                OFFSET -8.82822 0.546677 1.51678
                CHANNELS 3 Zrotation Xrotation Yrotation
                JOINT rRing2
                {
                  OFFSET -2.60934 -0.819778 -0.0198488
                  CHANNELS 3 Zrotation Xrotation Yrotation
                  End Site
                  {
                    OFFSET -2.33842 -0.294052 0.168128
                  }
                }
              }
              JOINT rPinky1
              {
                OFFSET -8.27202 -0.0477905 -0.4584
                CHANNELS 3 Zrotation Xrotation Yrotation
                JOINT rPinky2
                {
                  OFFSET -1.82734 -0.647385 -0.700984
                  CHANNELS 3 Zrotation Xrotation Yrotation
                  End Site
                  {
                    OFFSET -1.69225 -0.51767 -0.607171
                  }
                }
              }
            }
          }
        }
      }
      JOINT lCollar
      {
        OFFSET 2.68224 19.2634 -4.8768
        CHANNELS 3 Zrotation Xrotation Yrotation
        JOINT lShldr
        {
          OFFSET 8.77824 -1.95073 1.46304
          CHANNELS 3 Zrotation Xrotation Yrotation
          JOINT lForeArm
          {
            OFFSET 28.1742 -1.7115 0.48768
            CHANNELS 3 Zrotation Xrotation Yrotation
            JOINT lHand
            {
              OFFSET 22.5879 0.773209 7.07136
              CHANNELS 3 Zrotation Xrotation Yrotation
              JOINT lThumb1
              {
                OFFSET 1.2192 -0.487915 3.41376
                CHANNELS 3 Zrotation Xrotation Yrotation
                JOINT lThumb2
                {
                  OFFSET 3.37035 -0.52449 3.41376
                  CHANNELS 3 Zrotation Xrotation Yrotation
                  End Site
                  {
                    OFFSET 1.78271 -1.18214 1.43049
                  }
                }
              }
              JOINT lIndex1
              {
                OFFSET 7.75947 0.938293 5.60832
                CHANNELS 3 Zrotation Xrotation Yrotation
                JOINT lIndex2
                {
                  OFFSET 2.54057 -0.884171 1.56538
                  CHANNELS 3 Zrotation Xrotation Yrotation
                  End Site
                  {
                    OFFSET 1.62519 -0.234802 1.16502
                  }
                }
              }
              JOINT lMid1
              {
                OFFSET 8.24714 1.18213 3.41376
                CHANNELS 3 Zrotation Xrotation Yrotation
                JOINT lMid2
                {
                  OFFSET 3.10165 -0.590103 1.0647
                  CHANNELS 3 Zrotation Xrotation Yrotation
                  End Site
                  {
                    OFFSET 2.48547 -0.328903 0.83742
                  }
                }
              }
              JOINT lRing1
              {
                OFFSET 8.82822 0.546677 1.51678
                CHANNELS 3 Zrotation Xrotation Yrotation
                JOINT lRing2
                {
                  OFFSET 2.60934 -0.819778 -0.0198488
                  CHANNELS 3 Zrotation Xrotation Yrotation
                  End Site
                  {
                    OFFSET 2.33842 -0.294052 0.168128
                  }
                }
              }
              JOINT lPinky1
              {
                OFFSET 8.27202 -0.0477905 -0.4584
                CHANNELS 3 Zrotation Xrotation Yrotation
                JOINT lPinky2
                {
                  OFFSET 1.82734 -0.647385 -0.700984
                  CHANNELS 3 Zrotation Xrotation Yrotation
                  End Site
                  {
                    OFFSET 1.69225 -0.51767 -0.607171
                  }
                }
              }
            }
          }
        }
      }
    }
  }
  JOINT rButtock
  {
    OFFSET -8.77824 4.35084 1.2192
    CHANNELS 3 Zrotation Xrotation Yrotation
    JOINT rThigh
    {
      OFFSET 0 -1.70687 -2.19456
      CHANNELS 3 Zrotation Xrotation Yrotation
      JOINT rShin
      {
        OFFSET 0 -36.8199 0.73152
        CHANNELS 3 Zrotation Xrotation Yrotation
        JOINT rFoot
        {
          OFFSET 0.73152 -45.1104 -5.12064
          CHANNELS 3 Zrotation Xrotation Yrotation
          End Site
          {
            OFFSET -1.1221 -3.69964 12.103
          }
        }
      }
    }
  }
  JOINT lButtock
  {
    OFFSET 8.77824 4.35084 1.2192
    CHANNELS 3 Zrotation Xrotation Yrotation
    JOINT lThigh
    {
      OFFSET 0 -1.70687 -2.19456
      CHANNELS 3 Zrotation Xrotation Yrotation
      JOINT lShin
      {
        OFFSET 0 -36.8199 0.73152
        CHANNELS 3 Zrotation Xrotation Yrotation
        JOINT lFoot
        {
          OFFSET -0.73152 -45.1104 -5.12064
          CHANNELS 3 Zrotation Xrotation Yrotation
          End Site
          {
            OFFSET 1.1221 -3.69964 12.103
          }
        }
      }
    }
  }
}
MOTION
Frames:	8
Frame Time:	0.00833333
42.1055 78.2498 28.9678 -0.0 0.0 -0.0 0.0 -0.0 0.0 0.0 0.0 -0.0 -8.133567 10.422116 -81.502261 11.496437 6.51512 81.58876 -0.0 0.0 -0.0 -0.0 0.0 -0.0 -80.1661 68.371792 83.260848 16.926784 14.142456 -0.162407 -66.24597 -83.227972 -72.334437 4.441052 -13.702099 1.006441 51.059793 -41.203951 12.856726 -22.855554 7.456598 -7.895874 -140.164771 2.326489 115.87806 -13.91366 48.778331 8.129704 -36.036059 51.723116 29.832321 1.641654 0.961813 -2.483777 0.000474 0.063839 0.020056 -150.341235 60.771719 154.135168 1.298213 3.491578 1.192968 -85.943465 -54.00082 -82.932981 155.54842 -3.80427 -161.899949 147.211654 20.940447 -159.069852 -5.353541 8.504065 -0.562403 5.701251 17.923417 -0.280756 -114.538671 -50.245352 -55.721798 163.895021 -17.510653 -119.795183 14.228542 19.203392 -9.559881 -75.842731 -64.281979 -36.250684 36.036059 51.723116 -29.832321 147.465599 38.697934 -134.391172 145.119721 0.310087 179.225753 -22.264012 29.141469 5.764633 157.618062 58.281046 150.6141 139.458722 -6.071631 134.964675 0.0 0.0 -0.0 -0.0 -0.0 -0.0 4.304493 0.86717 39.030537 51.159233 -50.862044 -36.786167 0.0 0.0 -0.0 -0.0 -0.0 -0.0 -4.304493 0.86717 -39.030537 -3.299917 -5.358631 41.931592
42.5809 78.0146 28.7187 -0.0 -0.0 -0.0 -0.0 -4.771896 -180.0 0.0 -4.771896 180.0 0.245875 19.608241 -158.802917 7.579128 18.139248 157.548848 -0.0 -0.0 0.0 -0.0 -0.0 0.0 -142.973735 39.431617 147.390037 19.213928 13.697964 8.297526 -75.877893 -75.860661 -92.269978 27.228473 -53.933125 16.143199 174.054717 -22.871225 88.063103 -127.021622 19.225934 64.427694 -108.427673 34.160977 91.742903 -167.635392 -32.777357 125.102003 -158.521826 -0.192208 142.144949 5.737151 2.150972 0.211267 0.004672 0.917785 0.288305 -0.99513 -63.008939 -9.558036 -23.391137 -36.34947 -22.493225 -5.712197 -18.133305 -5.387177 -2.185877 -15.733598 3.202037 167.363721 53.659181 -167.780104 -177.076061 -46.769262 -174.429939 7.53316 23.237072 -0.74291 -0.229956 -0.22717 0.034885 -1.249253 -1.654937 1.183967 145.90645 -7.259791 -118.949872 10.050338 45.688529 -6.953859 0.571049 1.648356 -0.322148 166.783806 -5.665829 -143.511721 0.014868 -1.323148 0.415899 -0.663216 -8.205374 0.745455 7.144637 -15.70735 6.727898 -1.705076 3.578492 -1.765086 -0.0 0.0 -0.0 -0.0 -0.0 -0.0 6.882802 3.713377 72.914422 -124.495967 51.049327 54.384565 -0.0 0.0 -0.0 -0.0 -0.0 -0.0 -6.882802 3.713377 -72.914422 124.495967 51.049327 -54.384565
42.7817 77.8338 28.3625 -0.0 -0.0 -0.0 -0.0 -4.771896 -180.0 0.0 -4.771896 180.0 0.245875 19.608241 -158.802917 7.579128 18.139248 157.548848 -0.0 -0.0 0.0 -0.0 -0.0 0.0 -142.973735 39.431617 147.390037 19.213928 13.697964 8.297526 87.18702 72.617391 -106.182934 -161.629914 52.192222 136.176695 -166.631339 -4.304864 89.77151 -37.349076 -24.092271 8.458969 29.398793 -49.64614 -4.160016 -3.396032 14.721241 9.636034 0.541241 -1.589941 -0.294737 0.365766 -1.109967 -0.05119 0.004875 1.770451 0.556181 0.904417 -26.574411 -3.487386 27.13312 80.263659 10.028119 -24.702887 -37.090734 -25.515943 -2.185877 -15.733598 3.202037 167.363721 53.659181 -167.780104 -177.050867 -46.686637 -174.414353 7.561754 23.317292 -0.751452 176.533161 -14.149652 -89.697164 -111.563518 -66.008283 -84.235209 103.648381 36.534803 -87.623434 160.656315 -11.415703 -125.2737 0.571049 1.648356 -0.322148 166.783806 -5.665829 -143.511721 -0.004561 0.876454 -0.275323 85.92586 78.919681 -88.927443 138.797889 -5.405994 135.992089 143.474981 7.817648 141.694122 -0.0 0.0 -0.0 -0.0 -0.0 -0.0 7.066731 4.141724 76.966642 -145.229852 28.265151 79.003465 -0.0 0.0 -0.0 -0.0 -0.0 -0.0 -7.066731 4.141724 -76.966642 145.229852 28.265151 -79.003465
42.7718 77.6953 27.956600000000005 -0.0 -0.0 -0.0 -0.0 -4.771896 -180.0 0.0 -4.771896 180.0 0.245875 19.608241 -158.802917 7.579128 18.139248 157.548848 -0.0 -0.0 0.0 -0.0 -0.0 0.0 -142.973735 39.431617 147.390037 19.213928 13.697964 8.297526 87.18702 72.617391 -106.182934 -161.629914 52.192222 136.176695 -5.762555 5.57569 1.158248 -144.822241 -51.62889 116.47003 -14.228542 19.203392 9.559881 -173.423057 -13.721515 114.048377 -0.057679 0.167876 0.032027 -166.667048 -5.268216 143.38581 -75.40572 72.953351 93.419967 -147.557211 -40.90844 -163.183984 0.098846 0.258289 0.091255 -149.422956 10.349584 -143.348878 -2.185877 -15.733598 3.202037 167.363721 53.659181 -167.780104 -177.050867 -46.686637 -174.414353 7.561754 23.317292 -0.751452 173.984021 -11.650695 -89.881093 35.491709 -26.493065 -3.404642 117.600732 28.182069 -99.433449 175.58537 -51.955202 -120.846387 10.975806 25.789868 -7.640203 42.522609 59.335917 -33.616162 0.000473 -0.060845 0.019116 84.133438 78.756397 -87.200097 -8.143703 25.599709 -7.179334 -13.083316 42.146063 -6.841517 -0.0 0.0 -0.0 -0.0 -0.0 -0.0 7.066731 4.141724 76.966642 -145.229852 28.265151 79.003465 -0.0 0.0 -0.0 -0.0 -0.0 -0.0 -7.066731 4.141724 -76.966642 145.229852 28.265151 -79.003465
42.6483 77.603 27.5796 -0.0 0.0 -0.0 0.0 -0.0 0.0 0.0 0.0 -0.0 -8.133567 10.422116 -81.502261 11.496437 6.51512 81.58876 0.0 -0.0 -0.0 0.0 -0.0 -0.0 -80.1661 68.371792 83.260848 16.926784 14.142456 -0.162407 -50.917469 -81.321827 -57.232539 5.360554 -16.348176 1.33608 76.384988 -49.199857 28.871344 -33.778558 11.735961 -4.302228 -140.763228 1.380556 116.229033 -160.826041 -34.25981 122.837304 0.541241 -1.589941 -0.294737 0.365766 -1.109967 -0.05119 -0.006679 3.473835 1.091901 -156.851196 -76.228517 -169.102422 -78.639872 -51.460418 -77.082942 -146.01535 10.912741 -145.014792 155.54842 -3.80427 -161.899949 147.211654 20.940447 -159.069852 -175.272496 -24.880797 -141.738759 -176.377879 0.955776 -145.263757 171.818129 -9.500219 -89.947791 11.285898 -47.213466 -4.650286 151.353117 -17.158427 -121.133109 148.895506 -11.891882 -120.851355 -6.533059 -20.414937 2.717988 113.260993 59.253001 -100.608419 -0.004872 1.771856 -0.556622 70.741353 -86.518505 81.811916 -5.228373 15.42394 -4.710196 -13.304937 44.376114 -7.710631 0.0 0.0 -0.0 -0.0 -0.0 -0.0 6.649139 3.263768 68.510317 0.001328 -74.950354 -93.964548 0.0 0.0 -0.0 -0.0 -0.0 -0.0 -4.304493 0.86717 -39.030537 -3.299917 -5.358631 41.931592
42.5325 77.5343 27.1423 -0.0 -0.0 -0.0 -0.0 -4.771896 -180.0 0.0 -4.771896 180.0 0.245875 19.608241 -158.802917 7.579128 18.139248 157.548848 -0.0 -0.0 0.0 -0.0 -0.0 0.0 -142.973735 39.431617 147.390037 19.213928 13.697964 8.297526 -75.877893 -75.860661 -92.269978 27.228473 -53.933125 16.143199 93.028426 -51.083891 40.500925 -136.613753 19.777514 98.215623 -95.098932 39.750292 80.124695 -158.43378 -1.145481 123.9653 -160.573436 -6.359341 143.198121 175.633738 -59.389596 136.303755 0.004561 0.876214 0.275247 -135.693643 71.714085 139.094309 -144.78382 10.845923 -141.476964 56.367299 81.97313 -16.746323 -2.185877 -15.733598 3.202037 167.363721 53.659181 -167.780104 -177.076061 -46.769262 -174.429939 7.53316 23.237072 -0.74291 -1.17751 -1.165975 0.169201 30.282932 24.001727 -26.298172 83.732676 42.330462 -69.989987 173.05515 -33.889929 -123.376622 10.975806 25.789868 -7.640203 -0.831204 -0.948013 1.565839 72.350995 72.974965 -90.218005 172.89524 64.49333 174.3038 0.344362 -0.890269 0.318422 161.81562 55.152106 150.110736 -0.0 0.0 -0.0 -0.0 -0.0 -0.0 6.882802 3.713377 72.914422 -124.495967 51.049327 54.384565 -0.0 0.0 -0.0 -0.0 -0.0 -0.0 -6.882802 3.713377 -72.914422 124.495967 51.049327 -54.384565
42.4622 77.4548 26.889000000000003 -0.0 0.0 -0.0 0.0 -0.0 0.0 0.0 0.0 -0.0 -8.133567 10.422116 -81.502261 11.496437 6.51512 81.58876 -0.0 0.0 -0.0 -0.0 0.0 -0.0 -80.1661 68.371792 83.260848 16.926784 14.142456 -0.162407 -50.917469 -81.321827 -57.232539 5.360554 -16.348176 1.33608 -171.603563 -9.286185 89.949897 -34.751701 -26.98885 4.720383 -138.493513 4.896353 114.8648 84.448258 -73.444695 25.700345 -36.036059 51.723116 29.832321 -170.085807 -25.053816 147.150816 0.000171 0.022623 0.007107 -165.731804 -0.908816 171.893263 -23.839824 -36.726713 -22.932955 2.459168 2.715362 2.254766 155.54842 -3.80427 -161.899949 147.211654 20.940447 -159.069852 -179.77992 -13.102612 -143.624783 -172.557582 -10.976253 -144.51747 -1.842452 -1.827119 0.254339 -9.85188 -15.31658 9.119796 162.919155 -37.929343 -122.629395 -112.093646 -68.156932 -46.38829 0.057679 0.167876 -0.032027 166.353766 -4.309907 -143.285572 114.669357 66.731663 -135.092548 121.544018 -62.834101 140.839119 1.149411 -2.914417 1.065731 161.636495 55.143748 150.272441 0.0 0.0 -0.0 -0.0 -0.0 -0.0 6.649139 3.263768 68.510317 0.001328 -74.950354 -93.964548 0.0 0.0 -0.0 -0.0 -0.0 -0.0 -4.304493 0.86717 -39.030537 -3.299917 -5.358631 41.931592
42.3823 77.4116 26.7162 -0.0 -0.0 -0.0 0.0 0.0 0.0 0.0 0.0 0.0 -8.133567 10.422116 -81.502261 11.496437 6.51512 81.58876 0.0 -0.0 -0.0 0.0 -0.0 -0.0 2.185877 -15.733598 -3.202037 -167.363721 53.659181 167.780104 -179.900086 -55.129767 176.504142 -4.759714 15.073554 0.11096 -90.496118 38.312517 51.260776 -51.814125 -2.437397 45.9396 -162.919155 -37.929343 122.629395 145.915965 -66.524852 76.20738 -36.036059 51.723116 29.832321 -5.118822 21.316854 1.559743 -0.000142 -0.018512 -0.005816 -161.658352 32.603451 166.365848 -80.939074 -51.227554 -79.359772 -8.376416 -26.608103 -9.897876 80.1661 68.371792 -83.260848 -16.926784 14.142456 0.162407 -174.01671 -48.700026 -171.7211 9.733513 29.13792 -1.511876 -51.059793 -41.203951 -12.856726 152.296487 -69.249598 -148.117233 14.228542 19.203392 -9.559881 0.623471 -0.398768 4.475456 82.840589 61.110826 -74.532293 4.354867 23.470449 -1.823284 -0.004873 1.771387 -0.556475 150.989586 60.916022 -154.726893 145.078401 11.767423 141.738648 -19.889466 45.296398 -6.237913 -0.0 0.0 -0.0 -0.0 -2.27635 -180.0 -7.438471 -7.594683 -92.506295 -13.674742 -34.517834 -103.381746 -0.0 0.0 -0.0 -0.0 -2.27635 -180.0 7.438471 -7.594683 92.506295 13.674742 -34.517834 103.381746
